<?xml version="1.0" encoding="UTF-8"?>
<!-- Generator: Adobe Illustrator 24.1.3, SVG Export Plug-In . SVG Version: 6.00 Build 0)  -->
<svg xmlns="http://www.w3.org/2000/svg" xmlns:xlink="http://www.w3.org/1999/xlink" version="1.1" id="line" x="0px" y="0px" viewBox="0 0 512 512" style="enable-background:new 0 0 512 512;" xml:space="preserve">
<style type="text/css">
	.st0{fill:#B6E3EE;}
	.st1{fill:#03435F;}
</style>
<g>
	<path class="st0" d="M396,504h-64c-19,0-35.4-13.4-39.2-32h142.4C431.4,490.6,415,504,396,504L396,504z"></path>
	<path class="st0" d="M300,408h128c4.4,0,8,3.6,8,8v32c0,4.4-3.6,8-8,8H300c-4.4,0-8-3.6-8-8v-32C292,411.6,295.6,408,300,408z"></path>
	<path class="st0" d="M292,355.3V384c0,4.4,3.6,8,8,8h128c4.4,0,8-3.6,8-8v-28.7c63.7-39.8,83.1-123.7,43.4-187.4   S355.7,84.8,292,124.5s-83.1,123.7-43.4,187.4C259.6,329.5,274.4,344.3,292,355.3z M444,203.3c-10-21.4-28.1-37.9-50.4-45.8   c-4.2-1.5-6.4-6-4.9-10.2c1.5-4.2,6-6.4,10.2-4.9c26.3,9.4,47.8,28.9,59.7,54.2c1.9,4,0.1,8.8-3.9,10.7   C450.7,209,445.9,207.3,444,203.3L444,203.3L444,203.3z"></path>
</g>
<path class="st1" d="M362.8,212.9c10.1-9.1,17-17.7,21.7-27.1c3.5-7,4.7-13.3,3.7-19.7c-0.7-4.3-2.8-8.1-5.1-12.1  c-0.5-0.8-0.9-1.6-1.4-2.4l-0.3,0.3c-4.7,4.1-9.6,8.4-16.1,10.5l-1.4,0.5c-4.4,1.5-9,3-14.1,2.8c-1.3-0.1-3.3-0.7-4.4-2.2l-0.3-0.5  c-1.6-2.2-3.2-4.5-4.5-7c-4.8-9.4-10.5-16-17.8-20.6c-3.5-2.2-6.1-5.4-8-9.8c-4-9.2-6.1-19-8.1-28.5l-0.7-3.4  c-1.8-8.4-4.2-18.1-8.9-26.7c-3.2-5.7-7.4-8.3-13.2-8.1c-4.3,0.2-9.3,0.3-14.1-0.6c-3.5-0.6-6.8-1.9-10-3.2c-0.8-0.3-1.6-0.7-2.4-1  c-0.9-0.3-1.8-0.7-2.7-1c-6.1-2.4-11.9-4.6-18.2-5.3c-5.5-0.6-10.3,1.8-12.6,6.3c-0.4,0.8-0.8,1.7-1.1,2.8c-0.2,0.6-0.4,1.2-0.6,1.8  l-1.3,3.4l-3.1-2c-0.2-0.1-0.5-0.3-0.7-0.4c-0.5-0.3-0.9-0.6-1.4-0.9c-4.7-3.5-10.4-6.3-17.8-8.8c-3-1-6-2.2-8.9-3.3  c-1.5-0.6-3-1.1-4.5-1.7c-3.6-1.4-3.4-4.4-3.2-5.6c1.1-5.2,0.1-10.1-2.9-13.7c-2.9-3.5-7.3-5.4-12.5-5.2c-5.9,0.1-12,0.8-17.8,1.3  c-11.6,1.2-20.7,3.2-28.6,6.3c-3,1.2-6.1,2.2-9.1,3.3c-1,0.4-2.1,0.7-3.1,1.1c-3,1.1-5.9,0.8-8.6-0.7c-3-1.7-6.5-2.1-10.6-1.3  c-5.8,1.2-9.5,5.2-9.6,10.2c0,3.5-1.8,5.4-3.7,6.8l-1,0.8c-2.6,1.9-5,3.7-6.8,5.8c-3.1,3.7-3.7,8.5-3.5,14.5  c0.1,3.2-1.1,5.6-3.6,7.2c-1.3,0.8-2.5,1.6-3.8,2.4c-0.8,0.5-1.6,1-2.4,1.5c-11.7,7.4-19.8,16.7-24.8,28.2  c-2.4,5.6-1.6,10.4,2.5,14.8c0.5,0.5,0.9,1,1.4,1.6c0.8,1,1.6,1.9,2.5,2.6c2.6,2.3,3.4,5.5,2.3,8.7c-1.4,4-2.9,7.8-4.8,11.5  c-2.7,5.1-5.5,10.4-5.2,16.4c0,1.2,0.3,1.5,0.7,1.8l2.5,2.1c3.8,3.3,7.8,6.7,11.6,10.2l1,0.9c3.9,3.6,7.9,7.3,11.5,11.4  c6.4,7.3,14.9,11.6,23,15.2c4.1,1.8,8.7,1.8,13.7,0.1c1.2-0.4,2.3-0.9,3.5-1.4c1.3-0.5,2.6-1.1,3.9-1.6c1-0.4,3-0.9,5.1-0.3  c8.9,2.4,16.7,1.5,23.8-2.7c4-2.3,8.1-1.9,11.7,1.3c1.2,1,2.1,2.3,2.8,3.3c3.9,5.6,8.7,8,14.9,7.5c0.2,0,0.4,0,0.5,0  c2,0,4,0.9,5.2,2.4c1.3,1.6,1.7,3.7,1.2,5.8c-1.1,3.8-0.7,7.6-0.3,11.8c1.1,10,4,17.6,8.8,24c2,2.7,3.9,5.2,5.4,7.9  c5.2,9.3,5.9,17.9,2.2,26.4c-1.3,2.9-2.5,5.9-3.7,8.8l-0.7,1.7c-4.7,11.6-3.5,22,3.7,31.8c1.5,2,2.9,4.1,4.3,6  c0.8,1.1,1.6,2.2,2.4,3.3c2.4,3.4,4.9,7.6,5,13c0,0.9,0.1,1.9,0.3,3c1.7,11,6.1,21.4,13.4,31.9c2.5,3.6,3.7,7,3.9,11.1  c0.2,4.9,2.7,9.6,6.9,12.9c4.2,3.4,9.5,4.8,14.4,3.9c1-0.2,1.9-0.4,3-0.6c1.4-0.3,2.8-0.6,4.3-0.9c7.2-1,15.5-2.5,23.5-5.6  c9.6-3.8,15.2-8.8,18.3-16.4c2.1-5,5.4-9.8,9.9-14.1c2.8-2.7,3.9-4.8,3.7-7.4c-0.3-3,1.5-5,4.6-5.4c6.6-0.8,12.1-6.8,12.4-13.7  c0.3-5.3-1.5-10-5.7-14.8c-1.4-1.6-1.9-3.1-1.7-4.7c0.1-1,0.7-2.5,2.6-3.7l1.5-1c3-1.9,6-3.8,9.2-5.6c11.2-6.1,15.8-16,12.8-27.9  c-0.8-3-1.6-6-2.4-8.9c-1.1-3.8-2.2-7.7-3.1-11.7c-0.1-0.6-0.3-1.3-0.5-1.9c-0.9-3.7-2-8-1.2-11.9c2.5-12.2,8.7-22.1,18.6-29.4  C347.4,226.1,355.2,219.8,362.8,212.9z M326,225.8c-9.6,8.4-15.8,19.5-18.4,32.9c-1.2,6.1,0.4,12.5,1.9,18.7  c1.3,5.4,2.9,10.9,4.4,16.3c0.5,1.6,0.9,3.3,1.4,4.9c1.4,4.9,0.1,8.6-3.9,11.4c-1.8,1.2-3.8,2.7-6.1,3.7c-5.4,2.5-10,6.4-15.1,12.8  c-3,3.7-3.5,7.8-1.5,12.2c1,2.3,2.4,4.6,3.9,7c0.7,1.1,1.4,2.2,2,3.4l2.2,3.9l-4.5,0.6c-0.4,0.1-0.8,0.1-1.3,0.2  c-0.9,0.1-2,0.2-3,0.4c-5.7,0.9-9.6,5.2-9.1,10.1c2.3,4-0.3,7-1.6,8.5c-0.3,0.4-0.6,0.7-0.9,1.1c-4.1,5.8-7.2,10.6-9.8,15.1  c-1.7,3.1-3.8,5.2-6.5,6.8c-6.8,3.9-14.2,5.5-21.3,6.6c-3.5,0.6-6.6,1-9.6,1.5c-0.5,0.1-0.9,0.1-1.3,0.1c-2.1,0-3.4-0.8-4.2-1.5  c-0.9-0.9-2-2.4-1.9-5.2c0.2-4.3-0.5-7.7-2.3-10.6c-0.6-0.9-1.2-1.9-1.8-2.7c-7.9-9.4-12.4-20.2-13.4-32.2  c-0.6-6.7-3.4-13.1-8.8-20.2c-2.3-3-4.3-6-6.6-9.4c-3-4.5-3.4-9.6-1.4-14.8l0.9-2.2c1.1-2.9,2.3-5.9,3.6-8.8  c5.7-12.7,4.9-25.6-2.7-39.3c-1.8-3.3-3.8-6.4-6.1-9.1c-4.1-5-6.2-10.9-6.4-17.9c-0.1-3.2,0.2-6.3,0.4-9.3l0-0.3  c0.7-7.6-2.2-14.2-9.2-21.4c-0.2-0.1-0.4-0.3-0.6-0.6c-3-3.2-4.7-2.9-6.8-1.1c-1.6,1.3-3,1.4-4,1.3c-2.2-0.3-3.6-2.1-4-2.7  c-6.1-8.2-13.4-11.8-22.3-11.1c-3.6,0.3-7.4,1.8-10.3,3.1c-5.1,2.3-9.7,2.5-14.5,0.9c-3.1-1.1-6.7-0.8-11,0.8  c-0.2,0.1-0.4,0.1-0.6,0.2c-0.3,0.1-0.7,0.3-0.9,0.4c-6.3,4.4-12.3,2.1-16.8-0.3c-5-2.7-9.3-6-13.2-10.1c-4.3-4.5-9.2-8.8-13.9-12.9  c-1.2-1.1-2.4-2.1-3.7-3.2c-0.3-0.3-0.6-0.5-0.8-0.7c-2.5-2.2-3.4-3.8-1.3-7c0.2-0.3,0.4-0.7,0.7-1.2c3-5,5-9.8,6.2-14.5  c2.3-9.4,0.2-17-6.2-23.2c-3-2.9-2.1-5.7-1.1-7.5c4.4-8,11-14.5,19.6-19.2c4.6-2.5,9.7-5.9,12.4-11.7c1.7-3.6,2.4-7.7,2.1-12  c-0.2-3.2,1.4-5,2.9-6.3c2.8-2.5,6.1-5.4,9-8.6c0.6-0.6,1.1-1.7,1.6-2.8c0.3-0.6,0.6-1.3,0.9-2l1.2-2.3l2.5,0.9  c7.8,2.9,15.9,2.1,24.8-2.5c8.6-4.4,17.7-6.1,25.5-7.1c3.9-0.5,7.8-0.8,11.6-1.1c1.5-0.1,3-0.2,4.6-0.4c0.6-0.1,1.2,0,1.9,0  c0.4,0,0.9,0,1.4,0h5.4l-8.7,14.1c5,3.7,10.4,7.3,16.5,9.4c5.3,1.9,10.7,3.7,16,5.5l0.9,0.3c5.2,1.8,9.8,4.3,14.3,7.6  c4.5,3.4,9.6,4.6,15,3.5c4.5-0.9,7.4-3.4,9.2-8c0.2-0.5,0.4-1.1,0.6-1.8c0.1-0.4,0.3-0.8,0.4-1.3l1-3l2.9,1.1  c1.5,0.6,2.9,1.1,4.4,1.6c3.3,1.2,6.4,2.4,9.6,3.6l1.9,0.7c5.7,2.3,11.1,4.4,17,4.8c2.5,0.2,4.9,0.2,7,0c4.7-0.5,6.6,0.2,8.7,5.1  c2.5,5.9,3.9,12.1,5.2,18.1c0.5,2.5,1.1,5,1.7,7.5c2.3,9,4.8,17.6,7.5,25.7c2.4,7.3,7.2,13.3,14.7,18.5c3.3,2.3,6.1,5.3,8.4,9  c3,4.8,6.4,10.3,10.1,15.7c3.2,4.6,7.5,7,13.4,7.3c5.5,0.3,10.8-0.8,17.1-2.6c0.7-0.2,1.4-0.4,2.2-0.5c1-0.2,1.8,0.1,2.2,0.3  c0.1,0,0.2,0.1,0.3,0.1l3.4,1.3l-1.8,3.1c-0.5,0.8-0.9,1.6-1.4,2.4c-1,1.8-2.1,3.7-3.4,5.5c-5.5,7.3-12.3,14.2-22.1,22.3  c-2.6,2.1-5.3,4.2-7.9,6.1C333,220,329.4,222.8,326,225.8z"></path>
<g>
	<path class="st1" d="M357.4,348.9c-0.5,0-1,0-1.6-0.2c-3-0.6-5.5-2.8-7.4-6.8c-2.9-5.8-4.1-11.2-3.9-16.5c0.1-2.3,0.6-4.8,1.5-7   c0.8-2.1,1-4.5,0.6-8c-1.2-10,1.7-15.4,10.3-19.3c5.6-2.5,8.8-7.2,11.4-12l2.9-5.2l5.7-1.1l1.3,2.9c0.2,0.5,0.5,0.9,0.7,1.4   c0.7,1.4,1.6,3,1.9,4.9c1.4,9,0.5,17.6-2.6,25.5c-1.2,3.2-2.7,6.9-3.7,10.7c-0.8,3.1-1.3,6.1-1.5,8.9c-0.3,5.4-1.8,10.2-4.6,14.6   l-0.1,0.1c-0.5,0.8-1.2,1.8-2.2,2.7C364.2,346.6,361.1,348.9,357.4,348.9z M373.4,286.7c-2.9,4.6-6.9,9.1-13.1,11.9   c-5.4,2.4-6.4,4.5-5.6,11c0.4,3.2,0.6,7.5-1.1,11.9c-0.6,1.4-0.9,3-1,4.4c-0.2,3.9,0.8,8,3.1,12.6c1,2.1,1.8,2.4,1.8,2.4   c0,0,1,0.1,3.6-2.2c0.2-0.1,0.5-0.7,0.7-1l0.1-0.1c2-3.3,3.2-6.8,3.4-10.9c0.2-3.3,0.8-6.8,1.8-10.5c1.1-4.1,2.6-8.1,3.9-11.5   C373.1,299,373.9,293.1,373.4,286.7z"></path>
</g>
</svg>
