<?xml version="1.0" encoding="UTF-8"?>
<svg xmlns="http://www.w3.org/2000/svg" id="Layer_1" data-name="Layer 1" viewBox="0 0 377.41 377.41">
  <defs>
    <style>.cls-1{fill:#b6e3ee;}.cls-2{fill:#0c7296;}.cls-3{fill:#fff;}</style>
  </defs>
  <path class="cls-1" d="M302.45,103.54,265.92,67a4.16,4.16,0,0,0-3.2-1.37H153.12a13.45,13.45,0,0,0-13.69,13.7V280.27A13.45,13.45,0,0,0,153.12,294h137a13.46,13.46,0,0,0,13.7-13.7V106.74A4.17,4.17,0,0,0,302.45,103.54Zm-80.83-1.37A22.84,22.84,0,1,1,198.79,125,22.62,22.62,0,0,1,221.62,102.17Zm-23.74,44.3a32.1,32.1,0,0,0,47.49,0,40.65,40.65,0,0,1,17.35,33.33,4.31,4.31,0,0,1-4.56,4.57H185.09a4.32,4.32,0,0,1-4.57-4.57A40.63,40.63,0,0,1,197.88,146.47Zm78.54,111H166.82a4.57,4.57,0,0,1,0-9.13h109.6a4.57,4.57,0,1,1,0,9.13Zm0-36.53H166.82a4.57,4.57,0,0,1,0-9.13h109.6a4.57,4.57,0,1,1,0,9.13Zm-9.13-118.73v-21l21,21Z"></path>
  <path class="cls-2" d="M54.57,310.72H188.14a3.88,3.88,0,0,0,4.14-4.14v-5.14a65.59,65.59,0,0,0-48.07-63.25l-1.93-.53,1.58-1.22c9.69-7.54,15-18.21,15-30,0-20.34-17.19-37.53-37.53-37.53S83.83,186.06,83.83,206.4a38.49,38.49,0,0,0,15,30l1.58,1.22-1.93.53a65.59,65.59,0,0,0-48.07,63.25v5.14A3.88,3.88,0,0,0,54.57,310.72ZM92.1,206.4a29.26,29.26,0,1,1,29.26,29.26A29.64,29.64,0,0,1,92.1,206.4Zm44.22,38-15,30.5-14.83-30.22,1.27-.26a45.54,45.54,0,0,1,8.42-.53h10.27c1.66,0,3.15.14,4.59.28,1.26.12,2.46.23,3.63.23Zm-77.61,57A57.67,57.67,0,0,1,97.4,247.07l.83-.29,19.4,39.32a4.31,4.31,0,0,0,7.48-.05l19.37-39.27.84.29A57.66,57.66,0,0,1,184,301.44v1H58.71Z"></path>
  <circle class="cls-2" cx="198.79" cy="252.58" r="35.38"></circle>
  <path class="cls-3" d="M220,248.45H202.92V231.36a4.13,4.13,0,0,0-8.26,0v17.09H177.58a4.13,4.13,0,0,0,0,8.26h17.08v17.08a4.13,4.13,0,0,0,8.26,0V256.71H220a4.13,4.13,0,0,0,0-8.26Z"></path>
</svg>
