<?xml version="1.0" encoding="UTF-8"?>
<svg xmlns="http://www.w3.org/2000/svg" id="Layer_1" data-name="Layer 1" viewBox="0 0 377.41 377.41">
  <defs>
    <style>.cls-1{fill:#b6e3ee;}.cls-2{fill:#0c7296;}</style>
  </defs>
  <path class="cls-1" d="M155.23,120.75a276.07,276.07,0,0,1,44.48,3.49c-7-29.27-19-51.39-33-59.36-3.76-.36-7.59-.53-11.46-.53s-7.69.2-11.46.53c-14,8-26,30.1-33,59.36A276.19,276.19,0,0,1,155.23,120.75Z"></path>
  <path class="cls-1" d="M155.23,244.34a276.19,276.19,0,0,1-44.49-3.49c7,29.27,19,51.39,33,59.36,3.76.36,7.59.53,11.46.53s7.69-.2,11.46-.53c14-8,26-30.1,33-59.36A276.07,276.07,0,0,1,155.23,244.34Z"></path>
  <path class="cls-1" d="M202.13,135.65a266.77,266.77,0,0,0-93.8,0,266.72,266.72,0,0,0,0,93.79,260.64,260.64,0,0,0,46.9,4.16,260.72,260.72,0,0,0,46.9-4.16,261.43,261.43,0,0,0,4.15-46.89,261.46,261.46,0,0,0-4.15-46.9Z"></path>
  <path class="cls-1" d="M272.92,194c.36-3.76.53-7.6.53-11.46s-.2-7.69-.53-11.47c-8-14-30.1-26-59.36-33A277.32,277.32,0,0,1,217,182.55a277.31,277.31,0,0,1-3.5,44.48C242.82,220,264.92,208,272.92,194Z"></path>
  <path class="cls-1" d="M96.93,227a284.25,284.25,0,0,1,0-89c-29.3,7-51.39,19-59.36,33-.37,3.76-.54,7.6-.54,11.47s.2,7.69.56,11.46C45.54,208,67.63,220,96.93,227Z"></path>
  <path class="cls-1" d="M211.33,238.64a140.13,140.13,0,0,1-24.72,57.87A118.63,118.63,0,0,0,269.2,213.9,140.14,140.14,0,0,1,211.33,238.64Z"></path>
  <path class="cls-1" d="M99.13,238.64a139.86,139.86,0,0,1-57.87-24.72,118.63,118.63,0,0,0,82.61,82.59A140,140,0,0,1,99.13,238.64Z"></path>
  <path class="cls-1" d="M99.13,126.45a140,140,0,0,1,24.72-57.87,118.63,118.63,0,0,0-82.59,82.61A140,140,0,0,1,99.13,126.45Z"></path>
  <path class="cls-1" d="M211.33,126.45a140,140,0,0,1,57.87,24.72,118.63,118.63,0,0,0-82.62-82.59A139.91,139.91,0,0,1,211.33,126.45Z"></path>
  <path class="cls-2" d="M120.33,332.16H301.67a19.86,19.86,0,0,0,19.83-19.84V195a19.85,19.85,0,0,0-19.83-19.83h-3.84l-37.06-64.75a19.68,19.68,0,0,0-17.08-9.92h-.64a19.44,19.44,0,0,0-9.18,2.66L78.33,193.7a19.9,19.9,0,0,0-7.2,27.05l29.37,51.3v40.27A19.86,19.86,0,0,0,120.33,332.16ZM289,175.16H209.94l59.29-34.52Zm-30.33-53,6.75,11.8-70.71,41.18h-27Zm-20.94-12.4a11.76,11.76,0,0,1,9.06-1.22,11.92,11.92,0,0,1,7.32,5.66l.74,1.29-1.28.77L152.45,175.16h-27ZM108.17,195a12.18,12.18,0,0,1,12.16-12.17H301.67A12.18,12.18,0,0,1,313.83,195V312.32a12.18,12.18,0,0,1-12.16,12.17H120.33a12.18,12.18,0,0,1-12.16-12.17Zm-30.4,21.89a12.23,12.23,0,0,1,4.42-16.55l19-11.07-.48,3.52a15.69,15.69,0,0,0-.21,2.21V205.4l-22,12.8Zm4.55,8,18.18-10.58V230l-11.42,6.66Zm10.56,18.46,7.62-4.44v17.74Z"></path>
  <path class="cls-2" d="M211,292.49H136.33a3.84,3.84,0,0,0,0,7.67H211a3.84,3.84,0,0,0,0-7.67Z"></path>
  <rect class="cls-2" x="249.47" y="284.43" width="54.35" height="15.72" rx="7.86"></rect>
</svg>
